<svg width="25" height="24" viewBox="0 0 25 24" fill="none" xmlns="http://www.w3.org/2000/svg">
<path d="M14.41 10.09C14.9165 10.5966 15.2011 11.2836 15.2011 12C15.2011 12.7164 14.9165 13.4034 14.41 13.91C13.9034 14.4166 13.2164 14.7011 12.5 14.7011C11.7836 14.7011 11.0965 14.4166 10.59 13.91C10.0834 13.4034 9.79883 12.7164 9.79883 12C9.79883 11.6453 9.8687 11.294 10.0044 10.9663C10.1402 10.6386 10.3392 10.3408 10.59 10.09C10.8408 9.83917 11.1386 9.64021 11.4663 9.50446C11.794 9.36872 12.1453 9.29885 12.5 9.29885C13.2164 9.29885 13.9034 9.58344 14.41 10.09" stroke="#ABAFC4" stroke-width="1.5" stroke-linecap="round" stroke-linejoin="round"/>
<path d="M5.74993 12C5.74993 12.297 5.77693 12.594 5.81293 12.882L4.22493 14.124C4.05461 14.2574 3.93817 14.4478 3.89702 14.6602C3.85586 14.8725 3.89276 15.0926 4.00093 15.28L5.41293 17.723C5.52107 17.9101 5.69304 18.0519 5.89729 18.1224C6.10155 18.193 6.32439 18.1875 6.52493 18.107L7.94693 17.536C8.08536 17.4824 8.23477 17.4634 8.3822 17.4807C8.52963 17.4979 8.67062 17.5509 8.79293 17.635C9.01293 17.781 9.24093 17.915 9.47693 18.035C9.74693 18.172 9.94293 18.417 9.98593 18.717L10.2029 20.23C10.2659 20.672 10.6449 21 11.0909 21H13.9079C14.1238 21 14.3325 20.9221 14.4956 20.7807C14.6587 20.6393 14.7654 20.4437 14.7959 20.23L15.0129 18.718C15.0366 18.5712 15.0955 18.4323 15.1847 18.3134C15.2739 18.1944 15.3907 18.0989 15.5249 18.035C15.7599 17.917 15.9869 17.784 16.2059 17.639C16.3286 17.554 16.4701 17.5002 16.6183 17.4825C16.7664 17.4647 16.9167 17.4834 17.0559 17.537L18.4749 18.107C18.6755 18.1873 18.8983 18.1927 19.1025 18.1221C19.3067 18.0516 19.4786 17.9099 19.5869 17.723L20.9989 15.28C21.1071 15.0926 21.144 14.8725 21.1028 14.6602C21.0617 14.4478 20.9453 14.2574 20.7749 14.124L19.1869 12.882C19.2229 12.594 19.2499 12.297 19.2499 12C19.2499 11.703 19.2229 11.406 19.1869 11.118L20.7749 9.876C20.9453 9.74261 21.0617 9.55222 21.1028 9.33984C21.144 9.12745 21.1071 8.90735 20.9989 8.72L19.5869 6.277C19.4788 6.08991 19.3068 5.94809 19.1026 5.87755C18.8983 5.80702 18.6755 5.8125 18.4749 5.893L17.0559 6.463C16.9166 6.51634 16.7664 6.53492 16.6183 6.51715C16.4702 6.49938 16.3287 6.44578 16.2059 6.361C15.987 6.21555 15.7596 6.08332 15.5249 5.965C15.3907 5.90113 15.2739 5.8056 15.1847 5.68663C15.0955 5.56766 15.0366 5.4288 15.0129 5.282L14.7969 3.77C14.7664 3.55627 14.6597 3.36074 14.4966 3.2193C14.3335 3.07785 14.1248 2.99999 13.9089 3H11.0919C10.876 2.99999 10.6674 3.07785 10.5042 3.2193C10.3411 3.36074 10.2345 3.55627 10.2039 3.77L9.98593 5.284C9.96228 5.43026 9.90365 5.56865 9.81503 5.68739C9.72641 5.80613 9.61042 5.90171 9.47693 5.966C9.24093 6.086 9.01293 6.221 8.79293 6.366C8.67024 6.44971 8.52906 6.50236 8.38152 6.51943C8.23397 6.5365 8.08449 6.51748 7.94593 6.464L6.52493 5.893C6.32439 5.8125 6.10155 5.80702 5.89729 5.87755C5.69304 5.94809 5.52107 6.08991 5.41293 6.277L4.00093 8.72C3.89276 8.90735 3.85586 9.12745 3.89702 9.33984C3.93817 9.55222 4.05461 9.74261 4.22493 9.876L5.81293 11.118C5.77372 11.4104 5.75268 11.705 5.74993 12V12Z" stroke="#ABAFC4" stroke-width="1.5" stroke-linecap="round" stroke-linejoin="round"/>
</svg>
